# xmcd
#
# Track frame offsets:
# 150
# 25384
# 43336
# 61167
# 80701
# 94617
# 110514
# 127842
# 150452
# 175462
#
# Disc length: 2612 seconds
#
#
# Revision: 3
# Processed by: cddbd v1.5.2PL0 Copyright (c) Steve Scherf et al.
# Submitted via: FreeRIP 2.951 
#
DISCID=7d0a320a
DTITLE=Marcos Antonio - Sei la
DYEAR=0
DGENRE=gospel
TTITLE0=Sei la
TTITLE1=Filho Amado
TTITLE2=O Gigante Adormecido
TTITLE3=Deixa o Teimoso Teimar
TTITLE4=Altar de Deus
TTITLE5=Mudancas
TTITLE6=Plantou Colheu
TTITLE7=O Vento Impetuoso
TTITLE8=Do Lado de Quem
TTITLE9=assim, nao
EXTD=
EXTT0=
EXTT1=
EXTT2=
EXTT3=
EXTT4=
EXTT5=
EXTT6=
EXTT7=
EXTT8=
EXTT9=
PLAYORDER=
